<svg xmlns="http://www.w3.org/2000/svg" width="204.421" height="199.666" viewBox="0 0 54.086 52.828">
	<g transform="translate(-77.848 -203.956)">
		<ellipse id="ellipseBtnRotNeg90" cx="104.891" cy="230.37" rx="25.043" ry="24.414" fill="#e2ab0b" stroke="#1d219d" stroke-width="4" stroke-linecap="round" stroke-linejoin="round"/>
		<g stroke="#1d219d" fill="none" stroke-width="4" stroke-linecap="round" stroke-linejoin="round">
			<path transform="matrix(.94622 -.32353 -.32481 -.94578 -60.287 24.015)" d="M81.628-258.303a13.63 13.674 0 0112.782-2.362 13.63 13.674 0 018.943 9.463"/>
			<path d="M105.313 237.674l-5.716 4.295 5.238 5.327"/>
		</g>
		<g fill="#1d219d" stroke-width="1.006" stroke-opacity="0">
			<path d="M98.628 230.12c2.543-.447 3.81-2.385 4.016-6.14.114-2.081-.306-3.545-1.305-4.546-.784-.787-1.767-1.145-3.152-1.148-1.328-.002-2.51.385-3.312 1.087-1.717 1.502-1.484 5.182.396 6.26.72.413 1.2.522 2.321.525 1.061.002 1.64-.122 2.113-.453.118-.083.254-.15.303-.15.138 0 .104.497-.073 1.07a2.436 2.436 0 01-1.275 1.49c-.421.206-.54.226-1.35.226-.49 0-1.151-.033-1.471-.072-.49-.06-.616-.05-.788.063-.18.118-.205.19-.205.596 0 .543.205.947.544 1.076.625.238 2.223.295 3.238.117zm-1.196-5.722c-.433-.138-.937-.692-1.086-1.193-.15-.503-.165-1.341-.033-1.781.227-.758.992-1.283 1.864-1.28.927.004 1.626.532 1.886 1.423.225.776.013 1.83-.476 2.361-.451.492-1.423.704-2.155.47zm10.62 5.952c-1.922-.196-3.245-1.323-3.752-3.196-.575-2.127-.375-5.37.425-6.89.288-.548.912-1.204 1.439-1.513.682-.4 1.466-.578 2.535-.579 1.599 0 2.522.342 3.407 1.264.571.595.76.937 1.025 1.852.595 2.06.447 5.192-.323 6.827-.259.55-1.037 1.395-1.548 1.68-.764.428-2.135.665-3.207.555zm1.382-2.365c.836-.38 1.133-1.555 1.06-4.199-.045-1.585-.13-2.064-.474-2.684-.474-.853-1.817-.973-2.45-.22-.67.795-.882 4.314-.363 5.994.182.59.628 1.138.98 1.205.437.084.937.045 1.247-.096zM88.885 224.278c1.258-.192 1.526-.041 2.794-.041.863.175 1.09 1.932.062 2.109-.81.14-2.587.156-3.025.026-.801-.239-.96-1.776.169-2.094z"/>
		</g>
	</g>
</svg>