<?xml version="1.0" encoding="UTF-8" standalone="no"?>
<svg
   xmlns:dc="http://purl.org/dc/elements/1.1/"
   xmlns:cc="http://creativecommons.org/ns#"
   xmlns:rdf="http://www.w3.org/1999/02/22-rdf-syntax-ns#"
   xmlns:svg="http://www.w3.org/2000/svg"
   xmlns="http://www.w3.org/2000/svg"
   xmlns:sodipodi="http://sodipodi.sourceforge.net/DTD/sodipodi-0.dtd"
   xmlns:inkscape="http://www.inkscape.org/namespaces/inkscape"
   id="svg8"
   version="1.1"
   viewBox="0 0 210 297"
   height="297mm"
   width="210mm"
   sodipodi:docname="btnRotNeg90.svg"
   inkscape:version="0.92.3 (2405546, 2018-03-11)">
  <sodipodi:namedview
     pagecolor="#ffffff"
     bordercolor="#666666"
     borderopacity="1"
     objecttolerance="10"
     gridtolerance="10"
     guidetolerance="10"
     inkscape:pageopacity="0"
     inkscape:pageshadow="2"
     inkscape:window-width="1609"
     inkscape:window-height="914"
     id="namedview22"
     showgrid="false"
     inkscape:zoom="0.2102413"
     inkscape:cx="396.85039"
     inkscape:cy="561.25984"
     inkscape:window-x="0"
     inkscape:window-y="30"
     inkscape:window-maximized="0"
     inkscape:current-layer="svg8" />
  <defs
     id="defs2" />
  <metadata
     id="metadata5">
    <rdf:RDF>
      <cc:Work
         rdf:about="">
        <dc:format>image/svg+xml</dc:format>
        <dc:type
           rdf:resource="http://purl.org/dc/dcmitype/StillImage" />
        <dc:title></dc:title>
      </cc:Work>
    </rdf:RDF>
  </metadata>
  <text
     xml:space="preserve"
     style="font-style:normal;font-weight:normal;font-size:10.58333302px;line-height:1.25;font-family:sans-serif;letter-spacing:0px;word-spacing:0px;fill:#000000;fill-opacity:1;stroke:none;stroke-width:0.26458332"
     x="475.31213"
     y="-38.639828"
     id="text1455"><tspan
       id="tspan1453"
       x="475.31213"
       y="-29.276058"
       style="stroke-width:0.26458332" /></text>
  <g
     id="g1369"
     transform="translate(-3.3605957e-6)">
    <g
       id="g1265"
       transform="translate(143.89661,189.01735)">
      <ellipse
         style="opacity:1;fill:#e2ab0b;fill-opacity:1;stroke:#1d219d;stroke-width:4;stroke-linecap:round;stroke-linejoin:round;stroke-miterlimit:4;stroke-dasharray:none;stroke-opacity:1"
         id="ellipse1263"
         cx="-39.005367"
         cy="41.352619"
         rx="25.043154"
         ry="24.414145" />
    </g>
    <g
       transform="translate(-60.286514,24.014548)"
       id="g1340">
      <g
         id="g1332"
         style="stroke:#1d219d;stroke-opacity:1">
        <path
           inkscape:connector-curvature="0"
           style="opacity:1;fill:none;fill-opacity:1;stroke:#1d219d;stroke-width:4.00000191;stroke-linecap:round;stroke-linejoin:round;stroke-miterlimit:4;stroke-dasharray:none;stroke-opacity:1"
           id="path1821"
           d="m 81.627655,-258.30302 a 13.629272,13.67414 0 0 1 12.782506,-2.36156 13.629272,13.67414 0 0 1 8.943199,9.46249"
           transform="matrix(0.94621892,-0.32352706,-0.32481359,-0.94577806,0,0)" />
        <path
           inkscape:connector-curvature="0"
           id="path1823"
           d="m 165.5998,213.65916 -5.71626,4.29514 5.23757,5.32666"
           style="opacity:1;fill:none;fill-opacity:1;stroke:#1d219d;stroke-width:3.99999976;stroke-linecap:round;stroke-linejoin:round;stroke-miterlimit:4;stroke-dasharray:none;stroke-opacity:1" />
      </g>
      <g
         style="fill:#1d219d;fill-opacity:1;stroke:none;stroke-width:1.00625777;stroke-opacity:0"
         id="g5651"
         transform="matrix(1.2211385,0,0,1.2211385,-166.70077,-206.93862)">
        <path
           inkscape:connector-curvature="0"
           style="fill:#1d219d;fill-opacity:1;stroke:none;stroke-width:0.06656019;stroke-opacity:0"
           d="m 266.64919,338.24566 c 2.08229,-0.36645 3.12027,-1.95393 3.28841,-5.02924 0.0932,-1.70382 -0.25073,-2.90212 -1.0682,-3.72231 -0.64226,-0.64439 -1.44731,-0.93743 -2.58193,-0.93986 -1.08681,-0.002 -2.05552,0.31551 -2.71199,0.88976 -1.40601,1.22995 -1.21525,4.24377 0.32452,5.12698 0.58953,0.33816 0.98296,0.42702 1.90083,0.42929 0.86864,0.002 1.34225,-0.0994 1.73001,-0.37103 0.0966,-0.0676 0.2082,-0.12298 0.24805,-0.12298 0.11308,0 0.0854,0.40708 -0.0595,0.87632 -0.16721,0.54138 -0.53341,0.96913 -1.04449,1.22012 -0.34477,0.1693 -0.44195,0.18559 -1.10561,0.18537 -0.40017,-1.3e-4 -0.94227,-0.0267 -1.20464,-0.0589 -0.401,-0.0493 -0.50379,-0.0412 -0.64492,0.0513 -0.14747,0.0966 -0.16787,0.15608 -0.16765,0.48883 3.1e-4,0.44416 0.16775,0.77533 0.44548,0.8809 0.51195,0.19465 1.82008,0.24169 2.6516,0.0954 z m -0.97997,-4.6863 c -0.35427,-0.11283 -0.7674,-0.5668 -0.88927,-0.97721 -0.12223,-0.41156 -0.13485,-1.09817 -0.0269,-1.45871 0.18585,-0.62027 0.81211,-1.05003 1.52656,-1.04752 0.75888,0.003 1.33187,0.43508 1.54416,1.16534 0.18453,0.63479 0.0107,1.49848 -0.38909,1.93347 -0.36993,0.40246 -1.16535,0.57576 -1.76551,0.38463 z m 8.69756,4.87421 c -1.57437,-0.16085 -2.65785,-1.08387 -3.07274,-2.61765 -0.47113,-1.74171 -0.30757,-4.39662 0.34757,-5.64152 0.23641,-0.44923 0.74745,-0.98655 1.17856,-1.23919 0.55864,-0.32735 1.20055,-0.474 2.07577,-0.47417 1.30964,-2.5e-4 2.06579,0.28009 2.79022,1.03451 0.46781,0.48717 0.62277,0.76723 0.8393,1.51672 0.48735,1.68698 0.36615,4.25174 -0.26419,5.59062 -0.21234,0.45101 -0.84916,1.14248 -1.26755,1.3763 -0.62605,0.34993 -1.74869,0.5441 -2.62694,0.45438 z m 1.13103,-1.93666 c 0.68492,-0.31105 0.92788,-1.27394 0.86774,-3.43877 -0.036,-1.29814 -0.10522,-1.69017 -0.3878,-2.19823 -0.38827,-0.6981 -1.48767,-0.79627 -2.0069,-0.1792 -0.54731,0.65045 -0.72147,3.53235 -0.29659,4.90794 0.14932,0.48345 0.5142,0.93192 0.80298,0.98693 0.35777,0.0682 0.76669,0.0366 1.02057,-0.0787 z"
           id="path5643" />
        <path
           inkscape:connector-curvature="0"
           id="path5645"
           d="m 258.67018,333.46111 c 1.03033,-0.15697 1.24984,-0.0337 2.28825,-0.0337 0.70687,0.14354 0.89224,1.58183 0.051,1.72672 -0.6633,0.11426 -2.11843,0.12845 -2.47758,0.0215 -0.65627,-0.19537 -0.78683,-1.45408 0.13827,-1.71462 z"
           style="fill:#1d219d;fill-opacity:1;stroke:none;stroke-width:0;stroke-linecap:butt;stroke-linejoin:miter;stroke-miterlimit:4;stroke-dasharray:none;stroke-opacity:0" />
      </g>
    </g>
  </g>
</svg>
