<?xml version="1.0" encoding="UTF-8" standalone="no"?>
<svg
   xmlns:dc="http://purl.org/dc/elements/1.1/"
   xmlns:cc="http://creativecommons.org/ns#"
   xmlns:rdf="http://www.w3.org/1999/02/22-rdf-syntax-ns#"
   xmlns:svg="http://www.w3.org/2000/svg"
   xmlns="http://www.w3.org/2000/svg"
   xmlns:sodipodi="http://sodipodi.sourceforge.net/DTD/sodipodi-0.dtd"
   xmlns:inkscape="http://www.inkscape.org/namespaces/inkscape"
   id="svg8"
   version="1.1"
   viewBox="0 0 210 297"
   height="297mm"
   width="210mm"
   sodipodi:docname="btnRot180.svg"
   inkscape:version="0.92.3 (2405546, 2018-03-11)">
  <sodipodi:namedview
     pagecolor="#ffffff"
     bordercolor="#666666"
     borderopacity="1"
     objecttolerance="10"
     gridtolerance="10"
     guidetolerance="10"
     inkscape:pageopacity="0"
     inkscape:pageshadow="2"
     inkscape:window-width="1581"
     inkscape:window-height="852"
     id="namedview21"
     showgrid="false"
     inkscape:zoom="0.2102413"
     inkscape:cx="396.85039"
     inkscape:cy="561.25984"
     inkscape:window-x="61"
     inkscape:window-y="88"
     inkscape:window-maximized="0"
     inkscape:current-layer="svg8" />
  <defs
     id="defs2" />
  <metadata
     id="metadata5">
    <rdf:RDF>
      <cc:Work
         rdf:about="">
        <dc:format>image/svg+xml</dc:format>
        <dc:type
           rdf:resource="http://purl.org/dc/dcmitype/StillImage" />
        <dc:title></dc:title>
      </cc:Work>
    </rdf:RDF>
  </metadata>
  <text
     xml:space="preserve"
     style="font-style:normal;font-weight:normal;font-size:10.58333302px;line-height:1.25;font-family:sans-serif;letter-spacing:0px;word-spacing:0px;fill:#000000;fill-opacity:1;stroke:none;stroke-width:0.26458332"
     x="475.31213"
     y="-38.639828"
     id="text1455"><tspan
       id="tspan1453"
       x="475.31213"
       y="-29.276058"
       style="stroke-width:0.26458332" /></text>
  <g
     id="g1358"
     transform="translate(-3.3605957e-6,0.66386449)">
    <g
       transform="translate(143.89661,122.85227)"
       id="g1249">
      <ellipse
         ry="24.414145"
         rx="25.043154"
         cy="41.352619"
         cx="-39.005367"
         id="ellipse1247"
         style="opacity:1;fill:#e2ab0b;fill-opacity:1;stroke:#1d219d;stroke-width:4;stroke-linecap:round;stroke-linejoin:round;stroke-miterlimit:4;stroke-dasharray:none;stroke-opacity:1" />
    </g>
    <g
       transform="translate(-59.843938,16.856365)"
       id="g1303">
      <g
         id="g1296">
        <path
           inkscape:connector-curvature="0"
           style="opacity:1;fill:none;fill-opacity:1;stroke:#1d219d;stroke-width:4.00000191;stroke-linecap:round;stroke-linejoin:round;stroke-miterlimit:4;stroke-dasharray:none;stroke-opacity:1"
           id="path1772"
           d="m -94.2361,193.35741 a 13.491764,13.53618 0 0 1 15.346175,-1.11617 13.491764,13.53618 0 0 1 6.408922,14.03421 13.491764,13.53618 0 0 1 -10.863688,10.93188"
           transform="matrix(0.32352706,-0.94621892,0.94577806,0.32481359,0,0)" />
        <path
           inkscape:connector-curvature="0"
           id="path1776"
           d="m 156.57201,147.55626 -4.2518,5.65859 -5.27292,-5.18473"
           style="opacity:1;fill:none;fill-opacity:1;stroke:#1d219d;stroke-width:4;stroke-linecap:round;stroke-linejoin:round;stroke-miterlimit:4;stroke-dasharray:none;stroke-opacity:1" />
      </g>
      <g
         style="fill:#1d219d;fill-opacity:1;stroke-width:1.01651359"
         id="g5622"
         transform="matrix(0.2447473,0,0,0.2447473,91.195058,103.12648)">
        <path
           inkscape:connector-curvature="0"
           id="path5615"
           d="m 315.74268,247.51695 c 3.69071,-0.97724 6.75397,-3.1218 8.02038,-5.61499 0.7739,-1.52359 1.18792,-3.90756 0.97482,-5.61317 -0.45039,-3.60477 -2.24239,-6.1717 -5.59188,-8.01001 -1.07145,-0.58805 -1.94811,-1.14967 -1.94811,-1.24804 0,-0.0984 0.62508,-0.55448 1.38907,-1.01358 3.44479,-2.0701 4.98199,-4.27013 4.99576,-7.14995 0.0248,-5.18174 -3.25242,-8.36004 -9.82441,-9.52791 -2.61721,-0.46508 -7.51594,-0.32272 -9.69997,0.28189 -5.72948,1.58611 -8.69672,5.22203 -8.19318,10.03955 0.31758,3.03853 1.95493,5.59094 4.73013,7.37369 0.69122,0.44403 1.25677,0.90261 1.25677,1.01907 0,0.11646 -0.68461,0.59638 -1.52135,1.06648 -3.8559,2.16634 -5.38915,4.31164 -5.5686,7.79146 -0.29232,5.66883 3.36273,9.55149 10.21384,10.84989 2.57585,0.48816 8.50873,0.3535 10.76673,-0.24438 z m -8.97434,-5.7112 c -5.19674,-2.02918 -5.08073,-7.59489 0.21554,-10.34088 l 1.70697,-0.88502 1.80957,0.58281 c 2.14974,0.69237 4.46874,2.03929 5.18485,3.01146 0.67758,0.91987 0.93369,2.46557 0.64506,3.89317 -0.66964,3.31214 -5.65854,5.26266 -9.56199,3.73846 z m 1.49458,-17.51334 c -1.65364,-0.65162 -3.56021,-2.25175 -4.02767,-3.38029 -0.45336,-1.09451 -0.20521,-2.94483 0.5342,-3.98323 0.34945,-0.49077 1.22048,-1.13293 2.05483,-1.5149 1.26586,-0.57953 1.69281,-0.64453 3.39024,-0.51616 3.21811,0.24339 5.10109,1.71187 5.33649,4.16176 0.14526,1.51174 -0.30022,2.45237 -1.80547,3.81227 -1.11945,1.01136 -2.9653,2.00211 -3.6914,1.98135 -0.21828,-0.006 -1.02433,-0.2586 -1.79122,-0.5608 z m 41.36632,23.11479 c 7.00121,-2.15204 10.01482,-8.68322 9.54166,-20.67894 -0.40375,-10.23619 -3.35369,-15.29931 -9.95842,-17.09212 -2.40802,-0.65363 -7.98902,-0.6513 -10.18646,0.004 -4.63761,1.38353 -7.26169,4.0656 -8.72058,8.91325 -1.48365,4.92997 -1.60984,13.88592 -0.27016,19.17484 0.63733,2.51613 2.35976,5.7644 3.63744,6.8597 3.1156,2.67089 6.39067,3.64104 11.57101,3.42757 1.64525,-0.0678 3.43359,-0.31596 4.38551,-0.60856 z m -7.24939,-5.88483 c -0.48373,-0.14702 -1.38125,-0.76906 -1.99449,-1.3823 -1.8867,-1.8867 -2.54606,-4.85149 -2.54843,-11.45892 -0.002,-6.34874 0.67474,-9.6279 2.39148,-11.58316 2.33455,-2.65891 6.89953,-2.09893 8.64637,1.06064 1.27201,2.30073 1.52475,4.02821 1.52475,10.42171 0,6.49631 -0.26402,8.22267 -1.60835,10.51659 -1.27058,2.16807 -3.93802,3.17718 -6.41133,2.42544 z m -67.14586,6.25895 c -0.45166,-0.19661 -1.07562,-0.71477 -1.38658,-1.15147 -0.55684,-0.78202 -0.56641,-0.99243 -0.63401,-13.9408 l -0.0686,-13.14679 -3.70417,2.69626 c -4.55227,3.31359 -4.67155,3.37396 -5.54121,2.80413 -0.8871,-0.58125 -1.01979,-1.24907 -0.89861,-4.52268 0.0945,-2.55374 0.1613,-2.84439 0.89547,-3.898 0.96072,-1.37875 6.21212,-5.43358 8.58119,-6.62591 1.59226,-0.80136 1.93031,-0.86839 4.7625,-0.94429 3.50296,-0.0939 4.49989,0.24529 5.34324,1.81781 0.4537,0.84596 0.48346,1.93642 0.48346,17.71076 0,15.77435 -0.0298,16.86481 -0.48346,17.71077 -0.7397,1.37926 -1.90436,1.87027 -4.4072,1.85805 -1.17603,-0.006 -2.48662,-0.16961 -2.94199,-0.36784 z"
           style="fill:#1d219d;fill-opacity:1;stroke-width:0.26895258" />
      </g>
    </g>
  </g>
</svg>
