<svg xmlns="http://www.w3.org/2000/svg" width="204.421" height="199.666" viewBox="0 0 54.086 52.828">
	<g transform="translate(-77.848 -138.455)">
		<ellipse id="ellipseBtnRot180" ry="24.414" rx="25.043" cy="164.869" cx="104.891" fill="#e2ab0b" stroke="#1d219d" stroke-width="4" stroke-linecap="round" stroke-linejoin="round"/>
		<g fill="none" stroke="#1d219d" stroke-width="4" stroke-linecap="round" stroke-linejoin="round">
			<path transform="rotate(-71.124 -17.669 50.614) skewX(-.078)" d="M-94.236 193.357a13.492 13.536 0 0115.346-1.116 13.492 13.536 0 016.409 14.034 13.492 13.536 0 01-10.864 10.932"/>
			<path d="M96.728 165.076l-4.252 5.66-5.273-5.186"/>
		</g>
		<path d="M108.628 181.226c.904-.24 1.653-.764 1.963-1.374.19-.373.291-.957.239-1.374-.11-.883-.549-1.51-1.369-1.96-.262-.145-.477-.282-.477-.306 0-.024.153-.136.34-.248.844-.507 1.22-1.045 1.223-1.75.006-1.268-.796-2.046-2.404-2.332-.64-.114-1.84-.079-2.374.069-1.403.388-2.129 1.278-2.006 2.457.078.744.479 1.368 1.158 1.805.17.108.308.22.308.25 0 .028-.168.145-.373.26-.943.53-1.319 1.055-1.363 1.907-.071 1.388.823 2.338 2.5 2.656.63.12 2.083.086 2.635-.06zm-2.196-1.398c-1.272-.497-1.244-1.859.053-2.53l.417-.217.443.142c.526.17 1.094.5 1.27.737.165.225.228.604.157.953-.164.81-1.385 1.288-2.34.915zm.366-4.286c-.405-.16-.872-.551-.986-.828-.111-.268-.05-.72.13-.975.086-.12.3-.277.504-.37.31-.142.414-.158.83-.127.787.06 1.248.42 1.305 1.019.036.37-.073.6-.442.933-.273.248-.725.49-.903.485-.053-.002-.25-.063-.438-.137zm10.124 5.657c1.713-.527 2.451-2.125 2.335-5.061-.099-2.505-.82-3.745-2.437-4.183-.59-.16-1.955-.16-2.493 0-1.135.34-1.777.996-2.135 2.182-.363 1.207-.394 3.399-.066 4.693.156.616.578 1.41.89 1.679.763.654 1.565.891 2.833.839.402-.017.84-.077 1.073-.15zm-1.774-1.44c-.119-.036-.338-.189-.488-.339-.462-.461-.624-1.187-.624-2.804 0-1.554.165-2.357.585-2.835.571-.65 1.689-.514 2.116.26.312.563.373.985.373 2.55 0 1.59-.064 2.013-.393 2.574a1.36 1.36 0 01-1.57.594zm-16.434 1.532a.977.977 0 01-.34-.282c-.136-.192-.138-.243-.155-3.412l-.016-3.218-.907.66c-1.114.811-1.143.826-1.356.686-.217-.142-.25-.305-.22-1.107.023-.625.04-.696.219-.954.235-.337 1.52-1.33 2.1-1.621.39-.196.473-.213 1.166-.231.857-.023 1.101.06 1.308.444.11.208.118.474.118 4.335 0 3.86-.007 4.128-.118 4.335-.181.337-.466.458-1.08.455-.287-.002-.608-.042-.72-.09z" fill="#1d219d" stroke-width="1.017"/>
	</g>
</svg>