<?xml version="1.0" encoding="UTF-8" standalone="no"?>
<svg
   xmlns:dc="http://purl.org/dc/elements/1.1/"
   xmlns:cc="http://creativecommons.org/ns#"
   xmlns:rdf="http://www.w3.org/1999/02/22-rdf-syntax-ns#"
   xmlns:svg="http://www.w3.org/2000/svg"
   xmlns="http://www.w3.org/2000/svg"
   xmlns:sodipodi="http://sodipodi.sourceforge.net/DTD/sodipodi-0.dtd"
   xmlns:inkscape="http://www.inkscape.org/namespaces/inkscape"
   id="svg8"
   version="1.1"
   viewBox="0 0 210 297"
   height="297mm"
   width="210mm"
   sodipodi:docname="btnRot90.svg"
   inkscape:version="0.92.3 (2405546, 2018-03-11)">
  <sodipodi:namedview
     pagecolor="#ffffff"
     bordercolor="#666666"
     borderopacity="1"
     objecttolerance="10"
     gridtolerance="10"
     guidetolerance="10"
     inkscape:pageopacity="0"
     inkscape:pageshadow="2"
     inkscape:window-width="1599"
     inkscape:window-height="924"
     id="namedview20"
     showgrid="false"
     inkscape:zoom="0.2102413"
     inkscape:cx="396.85039"
     inkscape:cy="561.25984"
     inkscape:window-x="0"
     inkscape:window-y="30"
     inkscape:window-maximized="0"
     inkscape:current-layer="svg8" />
  <defs
     id="defs2" />
  <metadata
     id="metadata5">
    <rdf:RDF>
      <cc:Work
         rdf:about="">
        <dc:format>image/svg+xml</dc:format>
        <dc:type
           rdf:resource="http://purl.org/dc/dcmitype/StillImage" />
        <dc:title></dc:title>
      </cc:Work>
    </rdf:RDF>
  </metadata>
  <text
     xml:space="preserve"
     style="font-style:normal;font-weight:normal;font-size:10.58333302px;line-height:1.25;font-family:sans-serif;letter-spacing:0px;word-spacing:0px;fill:#000000;fill-opacity:1;stroke:none;stroke-width:0.26458332"
     x="475.31213"
     y="-38.639828"
     id="text1455"><tspan
       id="tspan1453"
       x="475.31213"
       y="-29.276058"
       style="stroke-width:0.26458332" /></text>
  <g
     id="g1245"
     transform="translate(-37.161923,-3.540606)">
    <g
       id="g1203"
       transform="translate(181.05853,61.555533)">
      <ellipse
         style="opacity:1;fill:#e2ab0b;fill-opacity:1;stroke:#1d219d;stroke-width:4;stroke-linecap:round;stroke-linejoin:round;stroke-miterlimit:4;stroke-dasharray:none;stroke-opacity:1"
         id="ellipse1201"
         cx="-39.005367"
         cy="41.352619"
         rx="25.043154"
         ry="24.414145" />
    </g>
    <g
       transform="translate(4.7625002,2.1166667)"
       id="g1236">
      <g
         id="g1230">
        <path
           inkscape:connector-curvature="0"
           transform="matrix(0.94621892,0.32352706,-0.32481359,0.94577806,0,0)"
           d="m 154.96975,41.083466 a 13.371662,13.415682 0 0 1 12.5409,-2.316923 13.371662,13.415682 0 0 1 8.77416,9.283638"
           id="path1764"
           style="opacity:1;fill:none;fill-opacity:1;stroke:#1d219d;stroke-width:4.00000191;stroke-linecap:round;stroke-linejoin:round;stroke-miterlimit:4;stroke-dasharray:none;stroke-opacity:1" />
        <path
           inkscape:connector-curvature="0"
           style="opacity:1;fill:none;fill-opacity:1;stroke:#1d219d;stroke-width:4;stroke-linecap:round;stroke-linejoin:round;stroke-miterlimit:4;stroke-dasharray:none;stroke-opacity:1"
           d="m 137.66835,93.142213 -5.60822,-4.213949 5.13857,-5.225986"
           id="path1768" />
      </g>
      <path
         inkscape:connector-curvature="0"
         style="fill:#1d219d;fill-opacity:1;stroke-width:0.08202305"
         d="m 129.02508,112.22541 c 2.59392,-0.45649 3.88693,-2.43402 4.09639,-6.26494 0.11609,-2.12245 -0.31234,-3.61517 -1.33067,-4.63688 -0.80006,-0.80272 -1.80291,-1.16777 -3.2163,-1.17079 -1.35384,-0.003 -2.56057,0.39303 -3.37834,1.10838 -1.75146,1.53215 -1.51383,5.28646 0.40426,6.38668 0.73438,0.42124 1.22447,0.53194 2.36786,0.53477 1.08208,0.003 1.67205,-0.12383 2.15508,-0.4622 0.12033,-0.0842 0.25936,-0.15319 0.309,-0.15319 0.14086,0 0.10638,0.50709 -0.0741,1.09163 -0.20829,0.6744 -0.66447,1.20726 -1.30113,1.51991 -0.42947,0.2109 -0.55053,0.23119 -1.37725,0.23092 -0.4985,-1.7e-4 -1.17379,-0.0332 -1.50063,-0.0733 -0.49952,-0.0614 -0.62757,-0.0513 -0.80337,0.0639 -0.18371,0.12033 -0.20911,0.19442 -0.20884,0.60893 3.8e-4,0.5533 0.20896,0.96584 0.55493,1.09734 0.63773,0.24248 2.26728,0.30107 3.3031,0.11885 z m -1.22074,-5.83774 c -0.44131,-0.14055 -0.95595,-0.70607 -1.10776,-1.21731 -0.15227,-0.51268 -0.16799,-1.368 -0.0335,-1.81712 0.23151,-0.77266 1.01164,-1.30802 1.90163,-1.3049 0.94534,0.004 1.65911,0.54199 1.92356,1.45167 0.22987,0.79076 0.0134,1.86666 -0.48469,2.40852 -0.46082,0.50135 -1.45167,0.71723 -2.19929,0.47914 z m 10.83455,6.07181 c -1.96119,-0.20037 -3.31088,-1.35017 -3.82771,-3.26081 -0.58688,-2.16965 -0.38314,-5.47687 0.43296,-7.02764 0.2945,-0.55961 0.93111,-1.22895 1.46815,-1.54367 0.69589,-0.40778 1.49551,-0.59046 2.58578,-0.59067 1.63142,-3.1e-4 2.57336,0.34891 3.47577,1.28869 0.58276,0.60687 0.77579,0.95573 1.04552,1.88938 0.6071,2.10147 0.45612,5.29639 -0.3291,6.96424 -0.26451,0.56183 -1.0578,1.4232 -1.57899,1.71447 -0.77987,0.4359 -2.17834,0.67778 -3.27238,0.56601 z m 1.40893,-2.41249 c 0.8532,-0.38747 1.15586,-1.58696 1.08094,-4.28369 -0.0448,-1.61709 -0.13107,-2.10545 -0.48308,-2.73834 -0.48367,-0.86962 -1.85319,-0.99191 -2.49999,-0.22323 -0.68179,0.81027 -0.89875,4.40026 -0.36947,6.11383 0.18601,0.60224 0.64054,1.1609 1.00027,1.22943 0.44568,0.0849 0.95507,0.0456 1.27133,-0.098 z"
         id="path5572" />
    </g>
  </g>
</svg>
