<svg xmlns="http://www.w3.org/2000/svg" width="204.421" height="199.666" viewBox="0 0 54.086 52.828">
	<g transform="translate(-72.5 -79.246)">
		<ellipse id="ellipseBtnRot90" cx="99.543" cy="105.66" rx="25.043" ry="24.414" fill="#e2ab0b" stroke="#1d219d" stroke-width="4" stroke-linecap="round" stroke-linejoin="round"/>
		<g fill="none" stroke="#1d219d" stroke-width="4" stroke-linecap="round" stroke-linejoin="round">
			<path d="M154.97 41.083a13.372 13.416 0 0112.54-2.316 13.372 13.416 0 018.775 9.283" transform="rotate(18.876 -33.517 -111.105) skewX(-.078)"/>
			<path d="M99.92 98.01l-5.608-4.213 5.139-5.226"/>
		</g>
		<path d="M91.277 117.094c2.594-.457 3.887-2.434 4.097-6.265.116-2.123-.313-3.615-1.331-4.637-.8-.803-1.803-1.168-3.216-1.17-1.354-.004-2.561.392-3.379 1.108-1.751 1.532-1.514 5.286.404 6.386.735.422 1.225.532 2.368.535 1.082.003 1.672-.124 2.155-.462.12-.084.26-.153.31-.153.14 0 .106.507-.075 1.091a2.485 2.485 0 01-1.3 1.52c-.43.211-.551.231-1.378.231a15.49 15.49 0 01-1.5-.073c-.5-.062-.628-.051-.804.064-.184.12-.21.194-.209.609 0 .553.21.965.555 1.097.638.242 2.267.301 3.303.119zm-1.22-5.838c-.442-.14-.957-.706-1.108-1.217-.153-.513-.168-1.368-.034-1.817.232-.773 1.012-1.308 1.902-1.305.945.004 1.659.542 1.923 1.451.23.791.014 1.867-.484 2.409-.461.501-1.452.717-2.2.48zm10.834 6.072c-1.961-.2-3.31-1.35-3.828-3.26-.587-2.17-.383-5.478.433-7.029.295-.56.931-1.228 1.468-1.543.696-.408 1.496-.59 2.586-.59 1.632-.001 2.573.348 3.476 1.288.583.607.776.956 1.045 1.89.608 2.1.457 5.296-.329 6.963-.264.562-1.057 1.424-1.579 1.715-.78.436-2.178.678-3.272.566zm1.409-2.413c.853-.387 1.156-1.587 1.08-4.283-.044-1.617-.13-2.106-.482-2.739-.484-.87-1.853-.992-2.5-.223-.682.81-.899 4.4-.37 6.114.186.602.64 1.16 1 1.23.446.084.956.045 1.272-.099z" fill="#1d219d"/>
	</g>
</svg>