<?xml version="1.0" encoding="UTF-8" standalone="no"?>
<svg
   xmlns:dc="http://purl.org/dc/elements/1.1/"
   xmlns:cc="http://creativecommons.org/ns#"
   xmlns:rdf="http://www.w3.org/1999/02/22-rdf-syntax-ns#"
   xmlns:svg="http://www.w3.org/2000/svg"
   xmlns="http://www.w3.org/2000/svg"
   xmlns:sodipodi="http://sodipodi.sourceforge.net/DTD/sodipodi-0.dtd"
   xmlns:inkscape="http://www.inkscape.org/namespaces/inkscape"
   id="svg8"
   version="1.1"
   viewBox="0 0 51.612812 51.612812"
   height="51.612812mm"
   width="51.612812mm"
   sodipodi:docname="spriteRecycle.svg"
   inkscape:version="0.92.2 5c3e80d, 2017-08-06">
  <sodipodi:namedview
     pagecolor="#ffffff"
     bordercolor="#666666"
     borderopacity="1"
     objecttolerance="10"
     gridtolerance="10"
     guidetolerance="10"
     inkscape:pageopacity="0"
     inkscape:pageshadow="2"
     inkscape:window-width="1672"
     inkscape:window-height="934"
     id="namedview30"
     showgrid="false"
     inkscape:snap-global="true"
     inkscape:zoom="0.58402471"
     inkscape:cx="-252.98145"
     inkscape:cy="168.52421"
     inkscape:window-x="0"
     inkscape:window-y="0"
     inkscape:window-maximized="0"
     inkscape:current-layer="svg8"
     inkscape:pagecheckerboard="true"
     borderlayer="true"
     fit-margin-top="0"
     fit-margin-left="0"
     fit-margin-right="0"
     fit-margin-bottom="0" />
  <defs
     id="defs2">
    <inkscape:perspective
       sodipodi:type="inkscape:persp3d"
       inkscape:vp_x="0 : 148.49999 : 1"
       inkscape:vp_y="0 : 999.99994 : 0"
       inkscape:vp_z="210 : 148.49999 : 1"
       inkscape:persp3d-origin="105 : 98.999994 : 1"
       id="perspective885" />
  </defs>
  <metadata
     id="metadata5">
    <rdf:RDF>
      <cc:Work
         rdf:about="">
        <dc:format>image/svg+xml</dc:format>
        <dc:type
           rdf:resource="http://purl.org/dc/dcmitype/StillImage" />
        <dc:title></dc:title>
      </cc:Work>
    </rdf:RDF>
  </metadata>
  <g
     id="g1357"
     transform="translate(11.258729,-128.41164)">
    <circle
       style="opacity:1;fill:#f6c638;fill-opacity:1;stroke:none;stroke-width:1.99999988;stroke-linecap:round;stroke-linejoin:round;stroke-miterlimit:4;stroke-dasharray:none;stroke-dashoffset:5.6692915;stroke-opacity:1"
       id="circle1296"
       cx="14.547677"
       cy="154.21805"
       r="25.806406" />
    <g
       transform="translate(0.45411244)"
       id="g1347">
      <path
         style="fill:#008600;fill-rule:evenodd;stroke:none;stroke-width:1;stroke-miterlimit:4;stroke-dasharray:none;stroke-opacity:1"
         inkscape:connector-curvature="0"
         id="path848"
         d="m 21.746834,152.1899 9.094884,-5.27347 4.074983,7.62361 c 0.984303,4.16528 -4.409643,5.69384 -8.740538,5.44546 z" />
      <path
         style="fill:#008600;fill-rule:evenodd;stroke:none;stroke-width:1;stroke-miterlimit:4;stroke-dasharray:none;stroke-opacity:1"
         inkscape:connector-curvature="0"
         id="path850"
         d="m 20.208985,157.87549 -4.783661,8.19682 4.783661,8.31146 0.118112,-3.32458 h 4.370274 c 1.594557,0.13374 3.66158,-0.87892 4.42933,-2.35013 l 5.610466,-9.97377 c -1.850468,1.77694 -4.229912,2.23551 -6.9688,2.23551 h -7.382208 z" />
      <path
         style="fill:#008600;fill-rule:evenodd;stroke:none;stroke-width:1;stroke-miterlimit:4;stroke-dasharray:none;stroke-opacity:1"
         inkscape:connector-curvature="0"
         id="path852"
         d="m 9.4886513,148.15795 -9.16486278,-5.15807 4.88939958,-7.15835 c 3.2743065,-2.85703 7.2693649,0.97823 9.1477749,4.77391 z" />
      <path
         style="fill:#008600;fill-rule:evenodd;stroke:none;stroke-width:1;stroke-miterlimit:4;stroke-dasharray:none;stroke-opacity:1"
         inkscape:connector-curvature="0"
         id="path854"
         d="m 15.817563,146.88047 9.705616,0.0807 5.165017,-8.0936 -3.052107,1.51348 -2.121275,-3.70853 c -0.653492,-1.41803 -2.568997,-2.68053 -4.266929,-2.61793 l -11.7075811,0.0802 c 2.4988531,0.70779 4.0668651,2.50435 5.3962901,4.82853 l 3.58321,6.2644 z" />
      <path
         style="fill:#008600;fill-rule:evenodd;stroke:none;stroke-width:1;stroke-miterlimit:4;stroke-dasharray:none;stroke-opacity:1"
         inkscape:connector-curvature="0"
         id="path856"
         d="m -6.6569947,147.98356 2.8396858,2.10764 -2.672642,4.8638 c -1.336321,2.24276 0.9593748,4.42757 2.422082,5.18806 1.4399409,0.74864 3.67488852,0.83765 5.7628891,0.81064 l 3.7584034,-5.83657 2.8396891,1.45915 -4.9276855,-8.67378 z" />
      <path
         style="fill:#008600;fill-rule:evenodd;stroke:none;stroke-width:1;stroke-miterlimit:4;stroke-dasharray:none;stroke-opacity:1"
         inkscape:connector-curvature="0"
         id="path858"
         d="m -6.8414414,159.81445 6.0969754,10.70035 c 1.22495403,1.48617 3.5356804,1.83743 5.9299308,1.7834 h 6.4310492 v -10.13292 l -12.19395043,-0.0811 c -1.89312467,0.10809 -4.37088637,-0.2702 -6.26400497,-2.26976 z" />
    </g>
  </g>
</svg>
